<svg preserveAspectRatio="xMidYMid meet" data-bbox="75 273.6 842 48.36" viewBox="75 273.6 842 48.36" xmlns="http://www.w3.org/2000/svg" data-type="color" role="presentation" aria-hidden="true">
    <g>
        <path fill="#ffffff" d="M106.66 273.74v9.45H95.89v38.23h-9.45v-38.23H75v-9.45h31.66z" data-color="1"></path>
        <path d="M140.66 286.11a4.31 4.31 0 0 0-.38 1.78c0 1.38.43 2.53 1.29 3.45s1.98 1.38 3.34 1.38h25.05v9.45h-25.11c-.61 0-1.19.12-1.74.38-.55.25-1.03.6-1.44 1.03-.42.44-.75.94-1.01 1.51-.25.56-.38 1.16-.38 1.78 0 1.56.44 2.81 1.3 3.75.86.95 1.98 1.42 3.33 1.42h25.05v9.38h-23.83c-2.79 0-5.16-.42-7.12-1.24-1.97-.83-3.55-1.93-4.75-3.3a12.669 12.669 0 0 1-2.62-4.62c-.54-1.7-.81-3.46-.81-5.26 0-1.96.41-3.86 1.21-5.67.8-1.82 2.06-3.13 3.78-3.92-1.71-.78-2.96-2.1-3.77-3.96-.81-1.86-1.22-3.67-1.22-5.43 0-2.04.31-3.94.91-5.68.61-1.75 1.54-3.27 2.8-4.55 1.27-1.29 2.86-2.29 4.79-2.99 1.93-.71 4.2-1.06 6.8-1.06h23.83v9.45h-25.11c-.61 0-1.19.12-1.74.38-.55.25-1.03.6-1.44 1.03-.42.44-.75.94-1.01 1.51z" fill="#ffffff" data-color="1"></path>
        <path d="M242.74 321.42h-9.79l-13.11-37.03c-.28-.76-.68-1.14-1.21-1.14-.53 0-.93.38-1.21 1.12l-13.11 37.05h-9.79l14.44-41.27c.76-2.15 1.99-3.75 3.68-4.81 1.69-1.07 3.69-1.6 5.99-1.6s4.29.53 5.98 1.59c1.7 1.07 2.92 2.67 3.69 4.82l14.44 41.27z" fill="#ffffff" data-color="1"></path>
        <path d="M341.28 285.6v35.82h-9.99V286.4c0-2.23-.93-3.35-2.81-3.35-.53 0-.94.2-1.24.6-.29.4-.66 1.19-1.09 2.36l-9.2 28.17c-.67 2.47-2.05 4.38-4.13 5.74-2.07 1.36-4.37 2.04-6.89 2.04-1.79 0-3.45-.29-4.97-.86a12.23 12.23 0 0 1-3.99-2.42c-1.13-1.04-2.02-2.31-2.67-3.82-.64-1.5-.97-3.16-.97-4.96v-23.5c0-2.23-.93-3.35-2.81-3.35-.53 0-.93.2-1.21.6-.27.4-.56.97-.86 1.71l-12.59 36.06h-10.32l14.03-40.2c.85-2.4 2.26-4.27 4.25-5.61 1.98-1.34 4.26-2.01 6.83-2.01 1.75 0 3.4.29 4.94.86 1.54.57 2.88 1.38 4.02 2.42 1.14 1.05 2.05 2.32 2.71 3.82.67 1.49 1 3.13 1 4.9v23.35c0 2.28.92 3.42 2.75 3.42.54 0 .96-.18 1.27-.53.3-.36.64-1.09 1.01-2.18l9.28-28.74c.74-2.2 2.12-3.97 4.15-5.31 2.03-1.34 4.31-2.01 6.84-2.01 1.74 0 3.39.29 4.93.86 1.54.57 2.89 1.38 4.02 2.42 1.14 1.05 2.05 2.32 2.71 3.82.67 1.49 1 3.13 1 4.9z" fill="#ffffff" data-color="1"></path>
        <path d="M448.16 288.02c0 1.67-.27 3.36-.82 5.07-.54 1.72-1.43 3.25-2.65 4.59-1.23 1.34-2.82 2.42-4.78 3.25-1.96.82-4.3 1.24-7.04 1.24h-9.96c-1.22 0-2.26.48-3.1 1.44-.84.95-1.26 2.09-1.26 3.39v14.42h-9.52v-14.55c0-4.66 1.38-8.19 4.15-10.57 2.76-2.39 6.48-3.58 11.14-3.58h9.76c1.28 0 2.37-.46 3.28-1.39.9-.92 1.36-2.07 1.36-3.44 0-.61-.13-1.2-.39-1.77-.26-.58-.59-1.08-1.01-1.52-.42-.43-.9-.78-1.45-1.03-.54-.26-1.12-.38-1.72-.38h-25.12v-9.45h23.84c2.64 0 4.93.38 6.86 1.13 1.94.76 3.53 1.8 4.79 3.13 1.26 1.32 2.18 2.84 2.76 4.56.59 1.71.88 3.53.88 5.46z" fill="#ffffff" data-color="1"></path>
        <path d="M494.67 311.11v3.76c0 .18-.14.33-.32.33h-.25c-.09 0-.17-.03-.23-.09l-1.61-1.54a.369.369 0 0 1-.1-.24v-2.22c0-.18.15-.33.33-.33h1.86c.18 0 .32.15.32.33z" fill="#ffffff" data-color="1"></path>
        <path d="M458.2 311.11v2.22c0 .09-.04.17-.1.24l-1.61 1.54a.31.31 0 0 1-.22.09h-.25c-.18 0-.33-.15-.33-.33v-3.76c0-.18.15-.33.33-.33h1.85c.18 0 .33.15.33.33z" fill="#ffffff" data-color="1"></path>
        <path d="M503.6 310.86h-5c-.72 0-1.31-.58-1.31-1.31v-2.57c0-.1-.09-.19-.19-.19h-.18a.2.2 0 0 1-.2-.2v-2.24c0-.11-.09-.2-.19-.2h-1.8c-.11 0-.19-.09-.19-.2v-2.71c0-.37-.3-.66-.66-.66h-2.82c-.36 0-.65-.29-.65-.65V298c0-.36-.3-.65-.66-.65h-23.18a.09.09 0 0 1-.09-.09v-.06c0-.36-.29-.66-.65-.66h-1.01c-.22 0-.39-.17-.39-.39v-7.69c0-.18.14-.32.32-.32h.45c.15 0 .26-.12.26-.27v-1.07c0-.14-.11-.26-.26-.26h-.6c-.18 0-.33-.15-.33-.33v-2.36c0-.08.06-.13.13-.13h.32c.08 0 .13-.06.13-.14v-.25c0-.07-.05-.13-.13-.13h-.32c-.07 0-.13-.06-.13-.13v-.06c0-.08.06-.13.13-.13h.67c.07 0 .13-.06.13-.14v-1.83c0-.37.3-.66.66-.66h1.95c.11 0 .19-.09.19-.2v-.03c0-.11-.08-.2-.19-.2h-.01c-.04 0-.07-.03-.07-.07v-1.37a.39.39 0 0 0-.39-.39h-.96a.4.4 0 0 1-.4-.39v-.73c0-.12-.04-.24-.13-.32l-1.09-1.1a.453.453 0 0 0-.33-.14h-4.2a.43.43 0 0 0-.31.12l-.86.78c-.1.09-.15.21-.15.34v3.16c0 .04-.03.07-.07.07h-.14c-.11 0-.19.09-.19.2v.09c0 .11.08.2.19.2h3.32c.14 0 .26.12.26.26v.06c0 .15.12.26.26.26h1.08c.07 0 .13.06.13.13 0 .03-.01.06-.03.08l-1.38 2.08c-.02.04-.06.06-.11.06h-.4c-.07 0-.13.06-.13.13v.24c0 .07.06.13.13.13h.15c.07 0 .13.06.13.13v2.38c0 .18-.15.33-.33.33h-.5c-.15 0-.26.12-.26.26v1.07c0 .14.11.26.26.26h.5c.18 0 .33.14.33.33v7.69c0 .22-.18.39-.39.39h-1.11c-.36 0-.65.3-.65.66v2.73c0 .36-.3.65-.66.65h-2.82a.65.65 0 0 0-.65.66v2.71a.2.2 0 0 1-.2.2h-1.79a.2.2 0 0 0-.2.2v2.24a.2.2 0 0 1-.2.2h-.17c-.11 0-.2.09-.2.19v2.57c0 .73-.59 1.31-1.31 1.31h-5c-1.45 0-2.62 1.18-2.62 2.63v4.4c0 1.45 1.17 2.62 2.62 2.62h6.27c1.44 0 2.62-1.17 2.62-2.62v-.64c0-.21.18-.39.39-.39h.54c.34 0 .67-.13.91-.37l2.12-2.03c.25-.24.4-.59.4-.94v-4.35c0-.21.18-.39.39-.39h29.56c.22 0 .39.18.39.39v4.35c0 .35.15.7.41.94l2.11 2.03c.25.24.57.37.91.37h.54c.22 0 .39.18.39.39v.64c0 1.45 1.18 2.62 2.63 2.62h6.26c1.45 0 2.62-1.17 2.62-2.62v-4.4c0-1.45-1.17-2.63-2.62-2.63zm-45.4 2.47c0 .09-.04.17-.1.24l-1.61 1.54a.31.31 0 0 1-.22.09h-.25c-.18 0-.33-.15-.33-.33v-3.76c0-.18.15-.33.33-.33h1.85c.18 0 .33.15.33.33v2.22zm36.47 1.54c0 .18-.14.33-.32.33h-.25c-.09 0-.17-.03-.23-.09l-1.61-1.54a.369.369 0 0 1-.1-.24v-2.22c0-.18.15-.33.33-.33h1.86c.18 0 .32.15.32.33v3.76z" fill="#ffffff" data-color="1"></path>
        <path d="M458.2 311.11v2.22c0 .09-.04.17-.1.24l-1.61 1.54a.31.31 0 0 1-.22.09h-.25c-.18 0-.33-.15-.33-.33v-3.76c0-.18.15-.33.33-.33h1.85c.18 0 .33.15.33.33z" fill="#ffffff" data-color="1"></path>
        <path d="M494.67 311.11v3.76c0 .18-.14.33-.32.33h-.25c-.09 0-.17-.03-.23-.09l-1.61-1.54a.369.369 0 0 1-.1-.24v-2.22c0-.18.15-.33.33-.33h1.86c.18 0 .32.15.32.33z" fill="#ffffff" data-color="1"></path>
        <path d="M561.64 321.42h-9.79l-13.11-37.03c-.28-.76-.68-1.14-1.21-1.14-.53 0-.93.38-1.21 1.12l-13.11 37.05h-9.79l14.44-41.27c.76-2.15 1.99-3.75 3.68-4.81 1.69-1.07 3.69-1.6 5.99-1.6 2.3 0 4.29.53 5.98 1.59 1.7 1.07 2.92 2.67 3.68 4.82l14.45 41.27z" fill="#ffffff" data-color="1"></path>
        <path d="M634.2 273.74v35.95c0 1.85-.33 3.51-1 4.99-.66 1.47-1.57 2.75-2.73 3.83a11.73 11.73 0 0 1-4.01 2.47c-1.53.56-3.17.84-4.93.84-2.56 0-4.85-.68-6.86-2.04-2-1.37-3.37-3.13-4.09-5.28l-9.45-29.06c-.23-.8-.51-1.39-.84-1.79-.33-.4-.76-.6-1.3-.6-1.83 0-2.75 1.12-2.75 3.35v35.02h-10.06V285.6c0-1.78.32-3.42.96-4.91.64-1.49 1.53-2.76 2.67-3.81 1.14-1.04 2.48-1.85 4.03-2.42 1.54-.57 3.21-.86 5.01-.86 2.52 0 4.79.67 6.8 2.01 2 1.34 3.35 3.05 4.05 5.13l9.52 29.1c.29.88.59 1.5.9 1.86.31.36.73.54 1.28.54 1.83 0 2.75-1.14 2.75-3.42v-35.08h10.05z" fill="#ffffff" data-color="1"></path>
        <path d="M669.65 286.11c-.26.56-.38 1.15-.38 1.78 0 1.38.43 2.53 1.28 3.45.86.92 1.98 1.38 3.35 1.38h25.05v9.45h-25.12c-.61 0-1.19.12-1.74.38-.54.25-1.02.6-1.44 1.03-.42.44-.75.94-1 1.51-.26.56-.38 1.16-.38 1.78 0 1.56.43 2.81 1.29 3.75.87.95 1.98 1.42 3.34 1.42h25.05v9.38h-23.84c-2.79 0-5.16-.42-7.12-1.24-1.96-.83-3.55-1.93-4.75-3.3a12.669 12.669 0 0 1-2.62-4.62c-.53-1.7-.8-3.46-.8-5.26 0-1.96.4-3.86 1.2-5.67.8-1.82 2.06-3.13 3.78-3.92-1.71-.78-2.96-2.1-3.77-3.96-.81-1.86-1.21-3.67-1.21-5.43 0-2.04.3-3.94.91-5.68.6-1.75 1.54-3.27 2.8-4.55 1.26-1.29 2.85-2.29 4.78-2.99 1.94-.71 4.2-1.06 6.8-1.06h23.84v9.45h-25.12c-.61 0-1.19.12-1.74.38-.54.25-1.02.6-1.44 1.03-.42.44-.75.94-1 1.51z" fill="#ffffff" data-color="1"></path>
        <path fill="#ffffff" d="M755.5 273.74v9.45h-10.77v38.23h-9.44v-38.23h-11.45v-9.45h31.66z" data-color="1"></path>
        <path fill="#ffffff" d="M789.4 292.65v9.59h-20.22v-9.59h20.22z" data-color="1"></path>
        <path fill="#ffffff" d="m836.33 296.93 14.94 24.49H840.5l-10.99-18.78-10.98 18.78H807.7l14.87-24.48-14.87-23.2h10.7l11.11 18.51 11.04-18.51h10.72l-14.94 23.19z" data-color="1"></path>
        <path d="M917 306.87v.33c0 4.7-1.36 8.25-4.08 10.63-2.72 2.39-6.48 3.59-11.28 3.59h-24.51v-9.38h26.06c1.21 0 2.23-.48 3.06-1.45.82-.96 1.23-2.16 1.23-3.59 0-1.31-.41-2.44-1.23-3.4-.82-.95-1.84-1.43-3.06-1.43h-13.06c-2.79 0-5.17-.43-7.12-1.27-1.96-.85-3.54-1.96-4.74-3.32-1.2-1.37-2.07-2.89-2.61-4.57-.55-1.68-.82-3.34-.82-4.99 0-1.94.28-3.77.84-5.47a11.98 11.98 0 0 1 2.73-4.56c1.25-1.32 2.85-2.36 4.78-3.12 1.94-.75 4.25-1.13 6.94-1.13h23.84v9.45h-25.12c-.61 0-1.19.12-1.73.38-.55.25-1.03.6-1.45 1.03-.41.44-.75.94-1 1.51a4.31 4.31 0 0 0-.38 1.78c0 1.38.45 2.53 1.35 3.45.9.92 2 1.38 3.28 1.38h12.86c4.66 0 8.37 1.19 11.11 3.58 2.74 2.38 4.11 5.91 4.11 10.57z" fill="#ffffff" data-color="1"></path>
    </g>
</svg>